<?xml version="1.0" encoding="UTF-8"?> <svg xmlns="http://www.w3.org/2000/svg" width="80mm" height="36mm" viewBox="0 0 226.77 102.05"><title>lcd</title><path d="M0,0V102.05H226.77V0ZM113,2.08a1.39,1.39,0,1,1-1.39,1.39A1.39,1.39,0,0,1,113,2.08Zm-72,0a1.39,1.39,0,1,1-1.39,1.39A1.39,1.39,0,0,1,41,2.08Zm-7.2,0a1.39,1.39,0,1,1-1.39,1.39A1.39,1.39,0,0,1,33.83,2.08ZM6.54,3.74A2.85,2.85,0,1,1,3.69,6.59,2.85,2.85,0,0,1,6.54,3.74Zm0,94.6A2.86,2.86,0,1,1,9.4,95.49,2.86,2.86,0,0,1,6.55,98.34ZM19.43,4.85a1.39,1.39,0,1,1,1.39-1.38A1.38,1.38,0,0,1,19.43,4.85Zm5.81-1.38a1.39,1.39,0,1,1,1.39,1.39A1.39,1.39,0,0,1,25.24,3.47Zm18,86.37H26.89V85H43.22Zm0-72.82H26.89V12.21H43.22Zm5-12.17a1.39,1.39,0,1,1,1.39-1.38A1.38,1.38,0,0,1,48.23,4.85Zm7.2,0a1.39,1.39,0,1,1,1.39-1.38A1.38,1.38,0,0,1,55.43,4.85Zm7.2,0A1.39,1.39,0,1,1,64,3.47,1.38,1.38,0,0,1,62.63,4.85Zm7.2,0a1.39,1.39,0,1,1,1.39-1.38A1.38,1.38,0,0,1,69.83,4.85Zm7.2,0a1.39,1.39,0,1,1,1.39-1.38A1.38,1.38,0,0,1,77,4.85Zm7.2,0a1.39,1.39,0,1,1,1.39-1.38A1.38,1.38,0,0,1,84.23,4.85Zm7.2,0a1.39,1.39,0,1,1,1.39-1.38A1.38,1.38,0,0,1,91.43,4.85Zm7.2,0A1.39,1.39,0,1,1,100,3.47,1.38,1.38,0,0,1,98.63,4.85Zm5.81-1.38a1.39,1.39,0,1,1,1.39,1.39A1.39,1.39,0,0,1,104.44,3.47Zm17.11,86.37H105.22V85h16.33Zm0-72.82H105.22V12.21h16.33ZM120.23,4.85a1.39,1.39,0,1,1,1.39-1.38A1.38,1.38,0,0,1,120.23,4.85Zm7.2,0a1.39,1.39,0,1,1,1.39-1.38A1.38,1.38,0,0,1,127.43,4.85Zm72.45,85H183.55V85h16.33Zm0-72.82H183.55V12.21h16.33ZM220.21,3.73a2.86,2.86,0,1,1-2.86,2.86A2.86,2.86,0,0,1,220.21,3.73Zm0,94.61a2.86,2.86,0,1,1,2.85-2.85A2.86,2.86,0,0,1,220.21,98.34Z" transform="translate(0 0)" fill="#1f7a34"></path><path d="M1.58,6.59a5,5,0,1,0,5-5A5,5,0,0,0,1.58,6.59Zm2.11,0A2.86,2.86,0,1,1,6.54,9.44,2.85,2.85,0,0,1,3.69,6.59Z" transform="translate(0 0)" fill="#9a916c"></path><path d="M225.17,95.49a5,5,0,1,0-5,5A5,5,0,0,0,225.17,95.49Zm-2.11,0a2.86,2.86,0,1,1-2.85-2.86A2.86,2.86,0,0,1,223.06,95.49Z" transform="translate(0 0)" fill="#9a916c"></path><path d="M1.58,95.49a5,5,0,1,0,5-5A5,5,0,0,0,1.58,95.49Zm2.11,0a2.86,2.86,0,1,1,2.85,2.85A2.86,2.86,0,0,1,3.69,95.49Z" transform="translate(0 0)" fill="#9a916c"></path><path d="M217.56,65.27a1.34,1.34,0,0,1-1.33-1.33V38.11a1.34,1.34,0,0,1,1.33-1.33h.06V16h-.7l-2-2.05v-.71H11.9V14L9.85,16h-.7V36.78h.06a1.34,1.34,0,0,1,1.34,1.33V63.94a1.34,1.34,0,0,1-1.34,1.33H9.15V86h.7l2.05,2v.71h203v-.71l2-2h.7V65.27Z" transform="translate(0 0)" fill="#303030"></path><path d="M208.66,71.38a4,4,0,0,1-4,4H22.12a4,4,0,0,1-4-4V30.67a4,4,0,0,1,4-4H204.65a4,4,0,0,1,4,4Z" transform="translate(0 0)" fill="#87ad34"></path><g opacity="0.2"><path d="M208.65,30.65v0Zm-186.53-4a4,4,0,0,0-4,4V71.38a4,4,0,0,0,4,4h2.33a4,4,0,0,1-4-4V32a4,4,0,0,1,4-4H207.61a4,4,0,0,0-3-1.34Z" transform="translate(0 0)" fill="#22420d"></path></g><path d="M210.36,18.62A1.34,1.34,0,0,0,209,17.28H17.75a1.34,1.34,0,0,0-1.34,1.34v.74a1.34,1.34,0,0,0,1.34,1.33H209a1.34,1.34,0,0,0,1.34-1.33v-.74Z" transform="translate(0 0)" fill="#1a1a1a"></path><path d="M209.69,19.81a.93.93,0,0,0-1-.88H18.12a.88.88,0,1,0,0,1.76H208.73A.92.92,0,0,0,209.69,19.81Z" transform="translate(0 0)" fill="#424242"></path><path d="M210.36,82.06A1.34,1.34,0,0,0,209,80.72H17.75a1.34,1.34,0,0,0-1.34,1.34v.73a1.35,1.35,0,0,0,1.34,1.34H209a1.35,1.35,0,0,0,1.34-1.34v-.73Z" transform="translate(0 0)" fill="#1a1a1a"></path><path d="M209.69,83.25a.93.93,0,0,0-1-.88H18.12a.88.88,0,1,0,0,1.76H208.73A.93.93,0,0,0,209.69,83.25Z" transform="translate(0 0)" fill="#424242"></path><line x1="9.94" y1="16.17" x2="12.05" y2="14.06" fill="none" stroke="#f2f2f2" stroke-linecap="round" stroke-opacity="0.2" stroke-width="0.24"></line><line x1="12.07" y1="87.98" x2="9.96" y2="85.86" fill="none" stroke="#f2f2f2" stroke-linecap="round" stroke-opacity="0.2" stroke-width="0.24"></line><line x1="216.82" y1="16.17" x2="214.71" y2="14.06" fill="none" stroke="#f2f2f2" stroke-linecap="round" stroke-opacity="0.2" stroke-width="0.24"></line><line x1="214.69" y1="87.98" x2="216.8" y2="85.86" fill="none" stroke="#f2f2f2" stroke-linecap="round" stroke-opacity="0.2" stroke-width="0.24"></line><path d="M208.66,71.38a4,4,0,0,1-4,4H22.12a4,4,0,0,1-4-4V30.67a4,4,0,0,1,4-4H204.65a4,4,0,0,1,4,4V71.38Z" transform="translate(0 0)" fill="none" stroke="#1a1a1a" stroke-opacity="0.4" stroke-width="1.41"></path><path d="M215.25,6.59a5,5,0,1,0,5-5A5,5,0,0,0,215.25,6.59Zm2.1,0a2.86,2.86,0,1,1,2.86,2.85A2.86,2.86,0,0,1,217.35,6.59Z" transform="translate(0 0)" fill="#9a916c"></path><path d="M17,0V4.75a2.41,2.41,0,1,0,4.82,0V0Zm2.41,4.85a1.39,1.39,0,1,1,1.39-1.38A1.38,1.38,0,0,1,19.43,4.85Z" transform="translate(0 0)" fill="#9a916c"></path><path d="M24.22,0V4.75a2.41,2.41,0,0,0,4.82,0V0Zm2.41,4.85A1.39,1.39,0,1,1,28,3.47,1.38,1.38,0,0,1,26.63,4.85Z" transform="translate(0 0)" fill="#9a916c"></path><path d="M31.42,0V4.75a2.41,2.41,0,0,0,4.82,0V0Zm2.41,4.85a1.39,1.39,0,1,1,1.39-1.38A1.38,1.38,0,0,1,33.83,4.85Z" transform="translate(0 0)" fill="#9a916c"></path><path d="M38.62,0V4.75a2.41,2.41,0,1,0,4.82,0V0ZM41,4.85a1.39,1.39,0,1,1,1.39-1.38A1.38,1.38,0,0,1,41,4.85Z" transform="translate(0 0)" fill="#9a916c"></path><path d="M45.82,0V4.75a2.41,2.41,0,0,0,4.82,0V0Zm2.41,4.85a1.39,1.39,0,1,1,1.39-1.38A1.38,1.38,0,0,1,48.23,4.85Z" transform="translate(0 0)" fill="#9a916c"></path><path d="M53,0V4.75a2.41,2.41,0,0,0,4.82,0V0Zm2.41,4.85a1.39,1.39,0,1,1,1.39-1.38A1.38,1.38,0,0,1,55.43,4.85Z" transform="translate(0 0)" fill="#9a916c"></path><path d="M60.22,0V4.75a2.41,2.41,0,0,0,4.82,0V0Zm2.41,4.85A1.39,1.39,0,1,1,64,3.47,1.38,1.38,0,0,1,62.63,4.85Z" transform="translate(0 0)" fill="#9a916c"></path><path d="M67.42,0V4.75a2.41,2.41,0,0,0,4.82,0V0Zm2.41,4.85a1.39,1.39,0,1,1,1.39-1.38A1.38,1.38,0,0,1,69.83,4.85Z" transform="translate(0 0)" fill="#9a916c"></path><path d="M74.62,0V4.75a2.41,2.41,0,0,0,4.82,0V0ZM77,4.85a1.39,1.39,0,1,1,1.39-1.38A1.38,1.38,0,0,1,77,4.85Z" transform="translate(0 0)" fill="#9a916c"></path><path d="M81.82,0V4.75a2.41,2.41,0,1,0,4.82,0V0Zm2.41,4.85a1.39,1.39,0,1,1,1.39-1.38A1.38,1.38,0,0,1,84.23,4.85Z" transform="translate(0 0)" fill="#9a916c"></path><path d="M89,0V4.75a2.41,2.41,0,1,0,4.82,0V0Zm2.41,4.85a1.39,1.39,0,1,1,1.39-1.38A1.38,1.38,0,0,1,91.43,4.85Z" transform="translate(0 0)" fill="#9a916c"></path><path d="M96.22,0V4.75a2.41,2.41,0,0,0,4.82,0V0Zm2.41,4.85A1.39,1.39,0,1,1,100,3.47,1.38,1.38,0,0,1,98.63,4.85Z" transform="translate(0 0)" fill="#9a916c"></path><path d="M103.42,0V4.75a2.41,2.41,0,0,0,4.82,0V0Zm2.41,4.85a1.39,1.39,0,1,1,1.39-1.38A1.38,1.38,0,0,1,105.83,4.85Z" transform="translate(0 0)" fill="#9a916c"></path><path d="M110.62,0V4.75a2.41,2.41,0,1,0,4.82,0V0ZM113,4.85a1.39,1.39,0,1,1,1.39-1.38A1.38,1.38,0,0,1,113,4.85Z" transform="translate(0 0)" fill="#9a916c"></path><path d="M117.82,0V4.75a2.41,2.41,0,1,0,4.82,0V0Zm2.41,4.85a1.39,1.39,0,1,1,1.39-1.38A1.38,1.38,0,0,1,120.23,4.85Z" transform="translate(0 0)" fill="#9a916c"></path><path d="M125,0V4.75a2.41,2.41,0,1,0,4.82,0V0Zm2.41,4.85a1.39,1.39,0,1,1,1.39-1.38A1.38,1.38,0,0,1,127.43,4.85Z" transform="translate(0 0)" fill="#9a916c"></path><rect x="27.79" y="51.37" width="10.03" height="16.52" fill="#1a1a1a" fill-opacity="0.1"></rect><rect x="38.53" y="51.37" width="10.03" height="16.52" fill="#1a1a1a" fill-opacity="0.1"></rect><rect x="49.28" y="51.37" width="10.03" height="16.52" fill="#1a1a1a" fill-opacity="0.1"></rect><rect x="60.02" y="51.37" width="10.03" height="16.52" fill="#1a1a1a" fill-opacity="0.1"></rect><rect x="70.77" y="51.37" width="10.03" height="16.52" fill="#1a1a1a" fill-opacity="0.1"></rect><rect x="81.51" y="51.37" width="10.03" height="16.52" fill="#1a1a1a" fill-opacity="0.1"></rect><rect x="92.26" y="51.37" width="10.03" height="16.52" fill="#1a1a1a" fill-opacity="0.1"></rect><rect x="103" y="51.37" width="10.03" height="16.52" fill="#1a1a1a" fill-opacity="0.1"></rect><rect x="113.74" y="51.37" width="10.03" height="16.52" fill="#1a1a1a" fill-opacity="0.1"></rect><rect x="124.49" y="51.37" width="10.03" height="16.52" fill="#1a1a1a" fill-opacity="0.1"></rect><rect x="135.23" y="51.37" width="10.03" height="16.52" fill="#1a1a1a" fill-opacity="0.1"></rect><rect x="145.98" y="51.37" width="10.03" height="16.52" fill="#1a1a1a" fill-opacity="0.1"></rect><rect x="156.72" y="51.37" width="10.03" height="16.52" fill="#1a1a1a" fill-opacity="0.1"></rect><rect x="167.46" y="51.37" width="10.03" height="16.52" fill="#1a1a1a" fill-opacity="0.1"></rect><rect x="178.21" y="51.37" width="10.03" height="16.52" fill="#1a1a1a" fill-opacity="0.1"></rect><rect x="188.95" y="51.37" width="10.03" height="16.52" fill="#1a1a1a" fill-opacity="0.1"></rect><rect x="27.79" y="34.15" width="10.03" height="16.52" fill="#1a1a1a" fill-opacity="0.1"></rect><rect x="38.53" y="34.15" width="10.03" height="16.52" fill="#1a1a1a" fill-opacity="0.1"></rect><rect x="49.28" y="34.15" width="10.03" height="16.52" fill="#1a1a1a" fill-opacity="0.1"></rect><rect x="60.02" y="34.15" width="10.03" height="16.52" fill="#1a1a1a" fill-opacity="0.1"></rect><rect x="70.77" y="34.15" width="10.03" height="16.52" fill="#1a1a1a" fill-opacity="0.1"></rect><rect x="81.51" y="34.15" width="10.03" height="16.52" fill="#1a1a1a" fill-opacity="0.1"></rect><rect x="92.26" y="34.15" width="10.03" height="16.52" fill="#1a1a1a" fill-opacity="0.1"></rect><rect x="103" y="34.15" width="10.03" height="16.52" fill="#1a1a1a" fill-opacity="0.1"></rect><rect x="113.74" y="34.15" width="10.03" height="16.52" fill="#1a1a1a" fill-opacity="0.1"></rect><rect x="124.49" y="34.15" width="10.03" height="16.52" fill="#1a1a1a" fill-opacity="0.1"></rect><rect x="135.23" y="34.15" width="10.03" height="16.52" fill="#1a1a1a" fill-opacity="0.1"></rect><rect x="145.98" y="34.15" width="10.03" height="16.52" fill="#1a1a1a" fill-opacity="0.1"></rect><rect x="156.72" y="34.15" width="10.03" height="16.52" fill="#1a1a1a" fill-opacity="0.1"></rect><rect x="167.46" y="34.15" width="10.03" height="16.52" fill="#1a1a1a" fill-opacity="0.1"></rect><rect x="178.21" y="34.15" width="10.03" height="16.52" fill="#1a1a1a" fill-opacity="0.1"></rect><rect x="188.95" y="34.15" width="10.03" height="16.52" fill="#1a1a1a" fill-opacity="0.1"></rect><path d="M9.45,65.22V86h.27V65.17A1.17,1.17,0,0,1,9.45,65.22Z" transform="translate(0 0)" fill="#606060"></path><path d="M9.72,36.88V16H9.45v20.8A1.17,1.17,0,0,1,9.72,36.88Z" transform="translate(0 0)" fill="#606060"></path><rect x="11.9" y="13.57" width="202.97" height="0.27" fill="#606060"></rect><rect x="11.9" y="13.27" width="202.97" height="0.3" fill="#212121"></rect><path d="M9.21,36.78a.93.93,0,0,1,.24,0V16h-.3V36.78Z" transform="translate(0 0)" fill="#212121"></path><path d="M9.21,65.27H9.15V86h.31V65.22A1.11,1.11,0,0,1,9.21,65.27Z" transform="translate(0 0)" fill="#212121"></path><rect x="11.9" y="88.48" width="202.97" height="0.3" fill="#212121"></rect><rect x="11.9" y="88.21" width="202.97" height="0.27" fill="#606060"></rect><path d="M217.56,65.27a1.11,1.11,0,0,1-.25,0V86h.31V65.27Z" transform="translate(0 0)" fill="#212121"></path><path d="M217.56,36.78h.06V16h-.31v20.8A1.11,1.11,0,0,1,217.56,36.78Z" transform="translate(0 0)" fill="#212121"></path><path d="M217.05,65.17V86h.27V65.22A1.17,1.17,0,0,1,217.05,65.17Z" transform="translate(0 0)" fill="#606060"></path><path d="M217.32,36.83V16h-.27V36.88A1.17,1.17,0,0,1,217.32,36.83Z" transform="translate(0 0)" fill="#606060"></path><circle cx="19.43" cy="3.47" r="1.39"></circle><circle cx="26.63" cy="3.47" r="1.39"></circle><circle cx="33.83" cy="3.47" r="1.39"></circle><circle cx="41.03" cy="3.47" r="1.39"></circle><circle cx="48.23" cy="3.47" r="1.39"></circle><circle cx="55.43" cy="3.47" r="1.39"></circle><path d="M61.24,3.47a1.39,1.39,0,1,1,1.39,1.39,1.39,1.39,0,0,1-1.39-1.39" transform="translate(0 0)"></path><circle cx="69.83" cy="3.47" r="1.39"></circle><circle cx="77.03" cy="3.47" r="1.39"></circle><circle cx="84.23" cy="3.47" r="1.39"></circle><circle cx="91.43" cy="3.47" r="1.39"></circle><circle cx="98.63" cy="3.47" r="1.39"></circle><circle cx="105.83" cy="3.47" r="1.39"></circle><circle cx="113.03" cy="3.47" r="1.39"></circle><circle cx="120.23" cy="3.47" r="1.39"></circle><circle cx="127.43" cy="3.47" r="1.39"></circle></svg> 